<svg id="Layer_1" data-name="Layer 1" xmlns="http://www.w3.org/2000/svg" viewBox="0 0 1024 1024"><defs><style>.cls-1{fill:#fff;}</style></defs><title>BeatFlail</title><g id="Flail"><path class="cls-1" d="M162.45,535.8C128.7,379.59,228.77,228.16,381.92,195.07c152.61-33,306.71,62.93,340.51,219.78,33.07,153.43-63.25,306.72-220,340.3S195.57,688.43,162.45,535.8Z"/><path class="cls-1" d="M982.78,490.72c-.32,1.81-.66,4.57-1.32,7.23Q936.1,681,890.69,864.1q-6,24.17-12,48.33c-2.07,8.25-6.23,10.72-14.56,8.67q-23-5.67-45.93-11.46c-10.37-2.6-12.45-6.15-9.81-16.79q29-116.78,57.92-233.56l44.4-179c2.6-10.48,6.07-12.54,16.68-9.9q23.21,5.78,46.42,11.54C978.11,483,981.21,485.29,982.78,490.72Z"/><path class="cls-1" d="M839.65,627.11l-129.48,1.44c7.42-17,15.82-33.75,22.07-51.27s10.41-36,15.55-54.23c3.1,2.57,6.87,5.56,10.49,8.71q42.33,36.89,84.66,73.79c2.68,2.33,3.37,4.34,1.95,7.62C842.86,617.83,841.29,622.69,839.65,627.11Z"/><path class="cls-1" d="M243.72,240.34c-4-15.94-7.69-30.69-11.33-45.45-6.72-27.21-13.31-54.45-20.21-81.61-.84-3.31-.34-5,2.35-7,8.33-6,8.14-6,16.54.5q40.12,31,80.4,61.77c7.39,5.68,14.76,11.38,23.18,17.88C301.18,199.54,271.3,216.93,243.72,240.34Z"/><path class="cls-1" d="M138.5,513.95c3.72,17,6.4,33.67,11.1,49.69,4.64,15.84,11.31,31.08,17.23,47-7.95-.45-16.2-.83-24.44-1.39q-50.1-3.44-100.19-7c-2.34-.17-6.08-.43-6.65-1.75-1.65-3.8-2.18-8.13-2.75-12.31-.11-.77,1.52-1.95,2.55-2.66q50-35,100-70A24.78,24.78,0,0,1,138.5,513.95Z"/><path class="cls-1" d="M722.3,149.34c6.37,5.69,6.54,11.1,3.7,18.21-10.09,25.2-19.46,50.69-29,76.11-4.1,10.93-7.94,22-11.93,32.92-.54,1.49-1.23,2.93-2.19,5.18A315.06,315.06,0,0,0,609,215.27Z"/><path class="cls-1" d="M403.46,778.72a314.73,314.73,0,0,0,93.83-2.26c-.6,2.07-.88,3.42-1.37,4.69q-15.77,41.77-31.59,83.52c-3.22,8.45-6.72,16.78-10.1,25.16-1.28,3.17-7.67,6.95-10.77,5.85-1.3-.46-2.41-2.48-2.92-4Q428,854.36,415.66,817q-5.65-17-11.28-34.06C404,781.85,403.89,780.73,403.46,778.72Z"/><path class="cls-1" d="M911,440.9a16.58,16.58,0,0,1-20-12.33,16.76,16.76,0,0,1,12.47-20.37A16.77,16.77,0,1,1,911,440.9Z"/><path class="cls-1" d="M755.14,405.69A16.76,16.76,0,1,1,762,438.5a16.76,16.76,0,1,1-6.88-32.81Z"/><path class="cls-1" d="M938.56,437.87a16.76,16.76,0,0,1,12.73-19.79,17,17,0,0,1,20.09,13,16.79,16.79,0,0,1-13.33,19.81A16.54,16.54,0,0,1,938.56,437.87Z"/><path class="cls-1" d="M806.09,403a16.77,16.77,0,1,1-13,20.07A16.74,16.74,0,0,1,806.09,403Z"/><path class="cls-1" d="M854.54,403.16a16.75,16.75,0,0,1,7.24,32.71,16.75,16.75,0,1,1-7.24-32.71Z"/></g></svg>