<svg id="Layer_1" data-name="Layer 1" xmlns="http://www.w3.org/2000/svg" viewBox="0 0 1024 1024"><defs><style>.cls-1,.cls-2{fill:none;stroke:#fff;stroke-miterlimit:10;}.cls-1{stroke-width:80px;}.cls-2{stroke-width:120px;}</style></defs><path class="cls-1" d="M706.68,252l-40.62-78.86c-21.84-43.27-75-60.76-118.11-38.85L182,320.39c-43.1,21.92-60.49,75.3-38.64,118.57L184,517.82Z"/><path class="cls-1" d="M358.71,863.85l3.64,7.2c21.85,43.27,67.26,29.12,110.35,7.21L838.62,692.15c43.09-21.91,68.25-43.65,46.41-86.93l-3.64-7.2"/><line class="cls-1" x1="203.43" y1="635.21" x2="789.67" y2="337.06"/><line class="cls-1" x1="248.64" y1="720.79" x2="834.88" y2="422.64"/><line class="cls-1" x1="295.89" y1="814.37" x2="882.13" y2="516.22"/><line class="cls-2" x1="88.5" y1="87" x2="938.5" y2="937"/><line class="cls-2" x1="938.5" y1="87" x2="88.5" y2="928.83"/></svg>