<svg id="Layer_1" data-name="Layer 1" xmlns="http://www.w3.org/2000/svg" viewBox="0 0 1024 1024"><defs><style>.cls-1{fill:#3f48cc;stroke:#3f48cc;}.cls-1,.cls-2{stroke-miterlimit:10;stroke-width:15px;}.cls-2{fill:#ec1c24;stroke:#ec1c24;}</style></defs><title>BeatSaberColor</title><path class="cls-1" d="M957.33,907.37l-206-205.79c10.46,10.68,3.78,34.19-14.93,52.51s-42.35,24.5-52.81,13.82l206,205.79c10.46,10.68,34.1,4.5,52.81-13.82S967.79,918,957.33,907.37Z"/><path class="cls-1" d="M219.8,161C192.13,139,83.65,51.54,64.94,69.85s65.87,129,87.12,157.5L631.65,712.55c24.47,25,59.47,30.4,78.17,12.09s14-53.42-10.44-78.41Z"/><path class="cls-2" d="M127.77,962.42l205.79-206c-10.68,10.46-34.19,3.78-52.51-14.93s-24.5-42.35-13.82-52.81l-205.79,206c-10.68,10.46-4.5,34.1,13.82,52.81S117.09,972.88,127.77,962.42Z"/><path class="cls-2" d="M874.11,224.88C896.16,197.21,983.6,88.73,965.29,70s-129,65.87-157.5,87.12L322.59,636.74c-25,24.47-30.4,59.47-12.09,78.17s53.42,14,78.41-10.44Z"/></svg>