<svg id="Layer_1" data-name="Layer 1" xmlns="http://www.w3.org/2000/svg" viewBox="0 0 1024 1024"><defs><style>.cls-1{fill:#3f48cc;}.cls-2{fill:none;stroke:#3f48cc;stroke-miterlimit:10;stroke-width:90px;}</style></defs><title>BeatSpearColored</title><path class="cls-1" d="M490.44,642.62C528,605,708,368.82,685.12,345.92S427,502.06,388.42,540.6Z"/><path class="cls-2" d="M328.32,717.38s193.13-20.23,245.54,29.32c-3.28-79.16,175.31-294.94,321.31-491.46C935.93,200.37,941.9,86.9,941.9,86.9s-113.48,6-168.34,46.73C577,279.62,361.25,458.21,282.1,454.94c49.55,52.4,29.32,245.54,29.32,245.54"/><path class="cls-1" d="M163.32,971.35S87,1006.14,54.72,973.84s6.5-104.59,6.5-104.59l327-328.85L490.33,642.51Z"/></svg>