<svg id="Layer_1" data-name="Layer 1" xmlns="http://www.w3.org/2000/svg" viewBox="0 0 1024 1024"><defs><style>.cls-1,.cls-3{fill:none;stroke-miterlimit:10;stroke-width:100px;}.cls-1{stroke:#3f48cc;}.cls-2{fill:#3f48cc;}.cls-3{stroke:#ec1c24;}.cls-4{fill:#ec1c24;}</style></defs><title>DarthMaulColor</title><line class="cls-1" x1="518.42" y1="505.41" x2="807.29" y2="211.54"/><path class="cls-2" d="M689.71,238.19a394.62,394.62,0,0,0-40.14-37.48,375.2,375.2,0,0,0-45.89-30.88l-12.25-6.63c-1-.58-2.08-1-3.12-1.55l-3.15-1.5-6.3-3c-4.16-2.12-8.51-3.79-12.81-5.61l-6.47-2.71c-1.07-.48-2.17-.87-3.27-1.26l-3.3-1.19L546.39,144l-3.31-1.2-1.66-.6-1.68-.51-13.49-4.13-1.69-.52-1.71-.43-3.42-.86L512.57,134l-3.43-.87-1.72-.44-1.74-.35-7-1.4-7-1.41-1.74-.36-1.76-.27-3.51-.53-7-1.07-3.52-.54-1.76-.27-1.77-.18-14.21-1.47-1.78-.19-1.78-.1-3.57-.19-7.15-.39-3.58-.2-1.79-.1c-.6,0-1.19,0-1.79,0l-7.17,0c-4.79,0-9.59-.16-14.38.14l-7.2.29-3.6.14c-1.2,0-2.41.08-3.6.21l-14.39,1.28a415.56,415.56,0,0,0-57.08,10.47,415.43,415.43,0,0,0-55.27,19.17l-13.41,6.07c-1.13.48-2.21,1.06-3.3,1.62l-3.28,1.68-6.56,3.37-3.29,1.68c-1.1.55-2.2,1.12-3.25,1.75l-6.4,3.69-6.41,3.7c-1.06.63-2.16,1.2-3.19,1.88l-3.11,2-12.48,8-12.09,8.65c-4.11,2.81-7.93,6-11.83,9.06l-5.85,4.64c-1,.79-2,1.52-2.91,2.35l-2.8,2.47a401.12,401.12,0,0,0-42.7,42.14c-6.53,7.61-13,15.36-19,23.47-3.09,4-5.91,8.16-8.87,12.26l-4.23,6.28-2.11,3.15-2,3.2A403.64,403.64,0,0,0,43.95,419.87,409.64,409.64,0,0,0,29.8,542.74,415.92,415.92,0,0,1,31.74,417.2,422.42,422.42,0,0,1,71.53,296.14l1.8-3.6,1.9-3.55L79,281.88c2.69-4.65,5.26-9.39,8.11-14,5.5-9.27,11.53-18.22,17.72-27.09a435.5,435.5,0,0,1,41.47-50.05l2.79-3c.93-1,1.93-1.91,2.9-2.87l5.86-5.7c3.92-3.79,7.77-7.67,11.94-11.2s8.19-7.24,12.33-10.82L195,147l3.22-2.56c1.07-.86,2.21-1.62,3.32-2.43l6.69-4.81,6.7-4.81c1.11-.82,2.26-1.57,3.41-2.31l3.46-2.24,6.94-4.49,3.47-2.24c1.16-.75,2.31-1.51,3.51-2.18l14.32-8.31a468.37,468.37,0,0,1,60.32-28A474.77,474.77,0,0,1,374.69,64l16.53-3.16c1.38-.29,2.77-.48,4.16-.67l4.17-.6,8.35-1.19c5.57-.89,11.18-1.33,16.79-1.87l8.43-.78c.7-.06,1.41-.14,2.11-.18l2.11-.1,4.23-.2,8.47-.39,4.24-.19,2.12-.09h2.12l17,0h2.13l2.12.1,4.25.21,8.51.43,4.26.22,2.13.11,2.12.21,8.49.83,8.51.85,2.13.22,2.11.31,4.23.62L535,60l4.24.63,2.12.32,2.1.41,16.84,3.34,2.11.42,2.09.51,4.17,1L577,68.75l4.18,1.05c1.4.34,2.79.7,4.16,1.14l8.26,2.5c5.5,1.69,11.05,3.26,16.44,5.31l8.15,2.92,4.08,1.47c1.36.5,2.73,1,4.05,1.53l16,6.67a465.54,465.54,0,0,1,61.42,32.87,490.42,490.42,0,0,1,55.79,42.41Z"/><path class="cls-2" d="M611.6,320a297.29,297.29,0,0,0-28.83-28.15,284.92,284.92,0,0,0-33.19-23.52,266.47,266.47,0,0,0-76.72-30.73c-6.81-1.71-13.75-2.79-20.7-4l-10.51-1.34c-.88-.11-1.76-.24-2.64-.33l-2.64-.2-5.3-.42-5.31-.42-5.33-.16-5.34-.17-2.68-.08-2.67.05-10.72.18-10.72.7A301.79,301.79,0,0,0,345.55,238,312.48,312.48,0,0,0,303.9,251.3l-10.12,4.33c-1.71.68-3.34,1.54-5,2.34l-5,2.42c-1.65.82-3.33,1.6-5,2.44L274,265.5l-4.86,2.67-2.44,1.34c-.8.47-1.58,1-2.37,1.45l-9.48,5.85c-3.11,2-6.13,4.2-9.22,6.29-1.52,1.07-3.11,2.08-4.59,3.21l-4.45,3.41-4.46,3.41-2.24,1.71-2.14,1.82-8.6,7.29c-.73.59-1.42,1.24-2.09,1.89l-2,1.94-4.11,3.88-4.12,3.89-1,1-1,1-1.94,2.06L195,327.84c-.67.67-1.28,1.4-1.88,2.12l-1.83,2.17-3.68,4.34L184,340.83c-1.23,1.46-2.31,3-3.47,4.52l-6.9,9.12c-2.16,3.14-4.26,6.32-6.4,9.49l-3.2,4.77-2.93,4.93c-1.94,3.3-4,6.57-5.85,9.92-3.5,6.82-7.32,13.56-10.35,20.66l-2.41,5.28-1.21,2.64c-.38.89-.71,1.8-1.07,2.69l-4.25,10.83c-.75,1.8-1.33,3.65-1.94,5.49l-1.83,5.54-1.84,5.55c-.33.92-.58,1.86-.83,2.8l-.77,2.82-3.08,11.32-2.48,11.48c-.39,1.92-.89,3.83-1.19,5.77L121,482.3l-.94,5.83c-.31,1.95-.65,3.89-.82,5.85L118,505.76c-.09,1-.24,2-.29,3l-.16,3-.31,5.93-.31,5.94c-.07,1-.07,2-.06,3v14.91l-1.57-11.85-.39-3c-.14-1-.27-2-.33-3l-.47-6-.47-6-.23-3c-.08-1-.07-2-.1-3l-.3-12c-.09-2,0-4,0-6l.17-6,.17-6.05c0-2,.29-4,.43-6l1-12.1,1.64-12.05.41-3c.13-1,.27-2,.48-3l1.14-6,1.15-6c.38-2,.74-4,1.27-6l2.94-11.9c.25-1,.48-2,.76-3l.89-2.93,1.79-5.88c2.22-7.92,5.28-15.53,8.07-23.3,1.53-3.82,3.22-7.58,4.83-11.39l2.45-5.7,2.74-5.56c1.85-3.7,3.66-7.43,5.56-11.13l6.14-10.84c1-1.8,2-3.65,3.13-5.4l3.37-5.25,3.38-5.26,1.7-2.63c.56-.88,1.13-1.76,1.75-2.59l7.35-10.15,1.85-2.54.92-1.27,1-1.22,4-4.88,4-4.88,2-2.44c.66-.82,1.33-1.63,2-2.4L202,269.4l2.13-2.34,2.23-2.24,4.48-4.47,4.49-4.48c1.5-1.5,3.11-2.86,4.67-4.3,3.15-2.82,6.26-5.72,9.48-8.48l9.88-8.07c.83-.67,1.65-1.35,2.49-2l2.57-1.9,5.15-3.79,5.17-3.8c1.75-1.22,3.55-2.37,5.33-3.56l5.35-3.55c1.79-1.17,3.56-2.4,5.42-3.46l11.07-6.58a365.42,365.42,0,0,1,46.83-22,361.24,361.24,0,0,1,50.09-14.76L391.72,167l13-2,3.27-.48,3.28-.35,6.57-.67,6.58-.66,6.61-.38,6.62-.35L441,162c1.11,0,2.21,0,3.32,0l13.3-.07c8.86.34,17.77.6,26.64,1.56A347.92,347.92,0,0,1,588.6,190a375.2,375.2,0,0,1,48.52,25.45,393.08,393.08,0,0,1,44.29,32.93Z"/><path class="cls-2" d="M529.29,403.58a172.4,172.4,0,0,0-16.8-18,161.7,161.7,0,0,0-19.85-15.25L487.25,367l-5.58-3.1-1.4-.79-1.44-.7L475.94,361l-2.9-1.43-3-1.27-3-1.28-1.5-.65-1.53-.57-6.14-2.28-6.28-2-1.58-.5-1.6-.42-3.21-.83-3.22-.85-3.26-.68-3.27-.69-1.64-.35-1.65-.26-6.65-1.06-6.73-.73a190.3,190.3,0,0,0-27.39-.51,200.58,200.58,0,0,0-27.65,3.78l-6.88,1.6c-2.29.57-4.54,1.27-6.83,1.9-1.13.34-2.3.61-3.42,1l-3.37,1.14c-2.24.78-4.55,1.46-6.74,2.38a197,197,0,0,0-50.72,28.4L280,389.46l-5.6,4.92-2.82,2.47c-.91.86-1.78,1.74-2.68,2.61l-5.37,5.26-5.09,5.55-2.56,2.79-2.4,2.92-4.81,5.88L244.16,428c-.74,1-1.53,2-2.24,3.1l-2.08,3.2c-1.38,2.15-2.83,4.26-4.16,6.45-2.52,4.44-5.25,8.84-7.47,13.49l-1.76,3.46-.88,1.73-.79,1.77-3.15,7.12c-.56,1.18-1,2.4-1.46,3.62l-1.39,3.65-1.39,3.67c-.48,1.22-.82,2.48-1.24,3.72l-2.4,7.5-2,7.63c-.32,1.28-.71,2.55-1,3.84l-.8,3.88-.8,3.89c-.27,1.3-.56,2.6-.73,3.92l-1.2,7.9c-.09.66-.21,1.32-.29,2l-.19,2-.39,4-.39,4c-.15,1.34-.14,2.67-.22,4l-.35,8.07-1.21-8c-.18-1.34-.45-2.68-.56-4l-.39-4-.39-4.06-.2-2c-.06-.68-.07-1.36-.1-2l-.35-8.18c-.09-1.37,0-2.74,0-4.1l0-4.11,0-4.13c0-1.38.15-2.74.22-4.12l.53-8.27,1-8.25c.18-1.37.28-2.77.53-4.13l.7-4.11.71-4.12c.24-1.38.46-2.76.79-4.11l1.86-8.18.48-2.05.57-2,1.15-4.05c1.42-5.46,3.39-10.73,5.21-16.11,1-2.66,2.09-5.26,3.14-7.9l1.6-4c.56-1.31,1.19-2.58,1.78-3.87l3.64-7.76,4-7.57,2-3.79,2.23-3.68,4.51-7.38,4.89-7.14c.82-1.19,1.63-2.4,2.47-3.57l2.64-3.44,5.33-6.9,5.68-6.64a241,241,0,0,1,54-45.85c2.51-1.67,5.15-3.09,7.75-4.61L325.6,305c1.31-.76,2.67-1.4,4-2.11,2.7-1.36,5.37-2.8,8.11-4.09l8.3-3.76a260.09,260.09,0,0,1,34.73-12,256.38,256.38,0,0,1,36.66-6.64l9.38-.83,9.44-.4,2.37-.09H441l4.75,0,4.76,0,4.76.25,4.77.27,2.39.15,2.38.24,9.55,1,9.52,1.47,2.39.39,2.37.48,4.74,1,4.75,1,4.71,1.21,4.72,1.23,2.36.63,2.33.72,9.34,3,9.21,3.41a252.75,252.75,0,0,1,35.64,17.31A268.82,268.82,0,0,1,599.1,332Z"/><line class="cls-3" x1="505.58" y1="518.59" x2="216.71" y2="812.46"/><path class="cls-4" d="M334.29,785.81a394.61,394.61,0,0,0,40.14,37.48,375.19,375.19,0,0,0,45.89,30.88l12.25,6.63c1,.58,2.08,1,3.12,1.55l3.15,1.5,6.3,3c4.16,2.12,8.51,3.79,12.81,5.61l6.47,2.71c1.07.48,2.17.87,3.27,1.26l3.3,1.19,6.61,2.39,3.31,1.2,1.66.6,1.68.51,13.49,4.13,1.69.52,1.71.43,3.42.86,6.86,1.74,3.43.87,1.72.44,1.74.35,7,1.4,7,1.41,1.74.36,1.76.27,3.51.53,7,1.07,3.52.54,1.76.27,1.77.18,14.21,1.47,1.78.19,1.78.1,3.57.19,7.15.39,3.58.2,1.79.1c.6,0,1.19,0,1.79,0l7.17,0c4.79,0,9.59.16,14.38-.14l7.2-.29,3.6-.14c1.2,0,2.41-.08,3.6-.21l14.39-1.28a382.37,382.37,0,0,0,112.35-29.64l13.41-6.07c1.13-.48,2.21-1.06,3.3-1.62l3.28-1.68,6.56-3.37,3.29-1.68c1.1-.55,2.2-1.12,3.25-1.75l6.4-3.69,6.41-3.7c1.06-.63,2.16-1.2,3.19-1.88l3.11-2,12.48-8,12.09-8.65c4.11-2.81,7.93-6,11.83-9.06l5.85-4.64c1-.79,2-1.52,2.91-2.35l2.8-2.47a401.11,401.11,0,0,0,42.7-42.14c6.53-7.61,13-15.36,19-23.47,3.09-4,5.91-8.16,8.87-12.26l4.23-6.28,2.11-3.15,2-3.2a403.64,403.64,0,0,0,49.32-111.39A409.64,409.64,0,0,0,994.2,481.26a415.91,415.91,0,0,1-1.93,125.55,422.42,422.42,0,0,1-39.79,121.06l-1.8,3.6-1.9,3.55L945,742.12c-2.69,4.65-5.26,9.39-8.11,14-5.5,9.27-11.53,18.22-17.72,27.09a435.5,435.5,0,0,1-41.47,50.05l-2.79,3c-.93,1-1.93,1.91-2.9,2.87l-5.86,5.7c-3.92,3.79-7.77,7.67-11.94,11.2s-8.19,7.24-12.33,10.82L829,877l-3.22,2.56c-1.07.86-2.21,1.62-3.32,2.43l-6.69,4.81-6.7,4.81c-1.11.82-2.26,1.57-3.41,2.31l-3.46,2.24-6.94,4.49L791.79,903c-1.16.75-2.31,1.51-3.51,2.18l-14.32,8.31a468.36,468.36,0,0,1-60.32,28A474.77,474.77,0,0,1,649.31,960l-16.53,3.16c-1.38.29-2.77.48-4.16.67l-4.17.6-8.35,1.19c-5.57.89-11.18,1.33-16.79,1.87l-8.43.78c-.7.06-1.41.14-2.11.18l-2.11.1-4.23.2-8.47.39-4.24.19-2.12.09h-2.12l-17,0h-2.13l-2.12-.1-4.25-.21-8.51-.43-4.26-.22-2.13-.11L523,968.1l-8.49-.83-8.51-.85-2.13-.22-2.11-.31-4.23-.62L489,964l-4.24-.63-2.12-.32-2.1-.41-16.84-3.34-2.11-.42-2.09-.51-4.17-1L447,955.25l-4.18-1.05c-1.4-.34-2.79-.7-4.16-1.14l-8.26-2.5c-5.5-1.69-11.05-3.26-16.44-5.31l-8.15-2.92-4.08-1.47c-1.36-.5-2.73-1-4.05-1.53l-16-6.67a465.54,465.54,0,0,1-61.42-32.87,490.42,490.42,0,0,1-55.79-42.41Z"/><path class="cls-4" d="M412.4,704a297.29,297.29,0,0,0,28.83,28.15,284.92,284.92,0,0,0,33.19,23.52,266.47,266.47,0,0,0,76.72,30.73c6.81,1.71,13.75,2.79,20.7,4l10.51,1.34c.88.11,1.76.24,2.64.33l2.64.2,5.3.42,5.31.42,5.33.16,5.34.17,2.68.08,2.67-.05,10.72-.18,10.72-.7A301.79,301.79,0,0,0,678.45,786,312.47,312.47,0,0,0,720.1,772.7l10.12-4.33c1.71-.68,3.34-1.54,5-2.34l5-2.42c1.65-.82,3.33-1.6,5-2.44L750,758.5l4.86-2.67,2.44-1.34c.8-.47,1.58-1,2.37-1.45l9.48-5.85c3.11-2,6.13-4.2,9.22-6.29,1.52-1.07,3.11-2.08,4.59-3.21l4.45-3.41,4.46-3.41,2.24-1.71,2.14-1.82,8.6-7.29c.73-.59,1.42-1.24,2.09-1.89l2-1.94,4.11-3.88,4.12-3.89,1-1,1-1,1.94-2.06,7.81-8.24c.67-.67,1.28-1.4,1.88-2.12l1.83-2.17,3.68-4.34,3.69-4.35c1.23-1.46,2.31-3,3.47-4.52l6.9-9.12c2.16-3.14,4.26-6.32,6.4-9.49l3.2-4.77,2.93-4.93c1.94-3.3,4-6.57,5.85-9.92,3.5-6.82,7.32-13.56,10.35-20.66l2.41-5.28,1.21-2.64c.38-.89.71-1.8,1.07-2.69l4.25-10.83c.75-1.8,1.33-3.65,1.94-5.49l1.83-5.54,1.84-5.55c.33-.92.58-1.86.83-2.8l.77-2.82,3.08-11.32,2.48-11.48c.39-1.92.89-3.83,1.19-5.77l.93-5.82.94-5.83c.31-1.95.65-3.89.82-5.85L906,518.24c.09-1,.24-2,.29-3l.16-3,.31-5.93.31-5.94c.07-1,.07-2,.06-3V482.57l1.57,11.85.39,3c.14,1,.27,2,.33,3l.47,6,.47,6,.23,3c.08,1,.07,2,.1,3l.3,12c.09,2,0,4,0,6l-.17,6-.17,6.05c0,2-.29,4-.43,6l-1,12.1-1.64,12.05-.41,3c-.13,1-.27,2-.48,3l-1.14,6-1.15,6c-.38,2-.74,4-1.27,6l-2.94,11.9c-.25,1-.48,2-.76,3l-.89,2.93-1.79,5.88c-2.22,7.92-5.28,15.53-8.07,23.3-1.53,3.82-3.22,7.58-4.83,11.39l-2.45,5.7-2.74,5.56c-1.85,3.7-3.66,7.43-5.56,11.13l-6.14,10.84c-1,1.8-2,3.65-3.13,5.4L860.38,705,857,710.22l-1.7,2.63c-.56.88-1.13,1.76-1.75,2.59l-7.35,10.15-1.85,2.54-.92,1.27-1,1.22-4,4.88-4,4.88-2,2.44c-.66.82-1.33,1.63-2,2.4L822,754.6l-2.13,2.34-2.23,2.24-4.48,4.47-4.49,4.48c-1.5,1.5-3.11,2.86-4.67,4.3-3.15,2.82-6.26,5.72-9.48,8.48L784.63,789c-.83.67-1.65,1.35-2.49,2l-2.57,1.9-5.15,3.79-5.17,3.8c-1.75,1.22-3.55,2.37-5.33,3.56l-5.35,3.55c-1.79,1.17-3.56,2.4-5.42,3.46l-11.07,6.58a365.42,365.42,0,0,1-46.83,22,361.24,361.24,0,0,1-50.09,14.76L632.28,857l-13,2-3.27.48-3.28.35-6.57.67-6.58.66-6.61.38-6.62.35L583,862c-1.11,0-2.21,0-3.32,0l-13.3.07c-8.86-.34-17.77-.6-26.64-1.56A347.92,347.92,0,0,1,435.4,834a375.2,375.2,0,0,1-48.52-25.45,393.08,393.08,0,0,1-44.29-32.93Z"/><path class="cls-4" d="M494.71,620.42a172.4,172.4,0,0,0,16.8,18,161.7,161.7,0,0,0,19.85,15.25l5.39,3.38,5.58,3.1,1.4.79,1.44.7,2.89,1.41,2.9,1.43,3,1.27,3,1.28,1.5.65,1.53.57,6.14,2.28,6.28,2,1.58.5,1.6.42,3.21.83,3.22.85,3.26.68,3.27.69,1.64.35,1.65.26,6.65,1.06,6.73.73a190.29,190.29,0,0,0,27.39.51,200.57,200.57,0,0,0,27.65-3.78l6.88-1.6c2.29-.57,4.54-1.27,6.83-1.9,1.13-.34,2.3-.61,3.42-1l3.37-1.14c2.24-.78,4.55-1.46,6.74-2.38a197,197,0,0,0,50.72-28.4l5.84-4.61,5.6-4.92,2.82-2.47c.91-.86,1.78-1.74,2.68-2.61l5.37-5.26,5.09-5.55,2.56-2.79,2.4-2.92,4.81-5.88,4.49-6.14c.74-1,1.53-2,2.24-3.1l2.08-3.2c1.38-2.15,2.83-4.26,4.16-6.45,2.52-4.44,5.25-8.84,7.47-13.48l1.76-3.46.88-1.73.79-1.77,3.15-7.12c.56-1.18,1-2.4,1.46-3.62l1.39-3.65,1.39-3.67c.48-1.22.82-2.48,1.24-3.72l2.4-7.5,2-7.63c.32-1.28.71-2.55,1-3.84l.8-3.88.8-3.89c.27-1.3.56-2.6.73-3.92l1.2-7.9c.09-.66.21-1.32.29-2l.19-2,.39-4,.39-4c.15-1.34.14-2.67.22-4l.35-8.07,1.21,8c.18,1.34.45,2.68.56,4l.39,4,.39,4.06.2,2c.06.68.07,1.36.1,2l.35,8.18c.09,1.37,0,2.74,0,4.1l0,4.11,0,4.13c0,1.38-.15,2.74-.22,4.12l-.53,8.27-1,8.25c-.18,1.37-.28,2.77-.53,4.13l-.7,4.11-.71,4.12c-.24,1.38-.46,2.76-.79,4.11l-1.86,8.18L815,570.5l-.57,2-1.15,4.05c-1.42,5.46-3.39,10.73-5.21,16.11-1,2.66-2.09,5.26-3.14,7.9l-1.6,4c-.56,1.31-1.19,2.58-1.78,3.87l-3.64,7.76-4,7.57-2,3.79-2.23,3.68-4.51,7.38-4.89,7.14c-.82,1.19-1.63,2.4-2.47,3.57l-2.64,3.44-5.33,6.9-5.68,6.64a241,241,0,0,1-54,45.85c-2.51,1.67-5.15,3.09-7.75,4.61L698.4,719c-1.31.76-2.67,1.4-4,2.11-2.7,1.36-5.37,2.8-8.11,4.09l-8.3,3.76a260.1,260.1,0,0,1-34.73,12,256.38,256.38,0,0,1-36.66,6.64l-9.38.83-9.44.4-2.37.09H583l-4.75,0-4.76,0-4.76-.25-4.77-.27-2.39-.15-2.38-.24-9.55-1-9.52-1.47-2.39-.39-2.37-.48-4.74-1-4.75-1-4.71-1.21-4.72-1.23-2.36-.63-2.33-.72-9.34-3-9.21-3.41a252.75,252.75,0,0,1-35.64-17.31A268.81,268.81,0,0,1,424.9,692Z"/></svg>