<svg id="Layer_1" data-name="Layer 1" xmlns="http://www.w3.org/2000/svg" viewBox="0 0 1024 1024"><defs><style>.cls-1{fill:none;stroke:#fff;stroke-miterlimit:10;stroke-width:96px;}.cls-2{fill:#ec1c24;}.cls-3{fill:#3f48cc;}</style></defs><title>NoArrowsRandomColor</title><path class="cls-1" d="M279.1,157.5a98.71,98.71,0,0,1,83.3-46.1H821.8c54.1,0,98.4,44.3,98.4,98.4V669.2a98.46,98.46,0,0,1-43.4,81.5"/><path class="cls-1" d="M662.7,256.9H203.3c-54.1,0-98.4,44.3-98.4,98.4V814.7c0,54.1,44.3,98.4,98.4,98.4H662.7c54.1,0,98.4-44.3,98.4-98.4V355.3C761.1,301.2,716.8,256.9,662.7,256.9Z"/><path class="cls-2" d="M507.61,665.53H351.82V639.08q0-52.49,11.76-77.48t42.83-38.84L435,510.16q32.33-14.27,32.33-40.31a35.85,35.85,0,0,0-36.11-36.11q-41.16,0-41.15,57.11H245.16q0-76.42,35.27-124.72,26-35.69,67.61-56.69t86.08-21q78.94,0,132.91,52.28t54,129.55q0,95.33-77.27,134-25.2,12.6-30.65,21.84T507.61,665.53Z"/><path class="cls-3" d="M432.37,687.29q41.15,0,70.76,29.81t29.6,71q0,41.16-29.39,69.92t-71,28.76q-43.26,0-71.18-27.92t-27.92-71.18q0-42,29-71.18T432.37,687.29Z"/></svg>