<svg id="Layer_1" data-name="Layer 1" xmlns="http://www.w3.org/2000/svg" viewBox="0 0 1024 1024"><defs><style>.cls-1{fill:none;}.cls-1,.cls-2{stroke:#ec1c24;stroke-miterlimit:10;stroke-width:96px;}.cls-2{fill:#ec1c24;}</style></defs><title>NoArrowsColor</title><path class="cls-1" d="M279.1,157.5a98.71,98.71,0,0,1,83.3-46.1H821.8c54.1,0,98.4,44.3,98.4,98.4V669.2a98.46,98.46,0,0,1-43.4,81.5"/><path class="cls-2" d="M667.25,256.9H207.85c-54.1,0-98.4,44.3-98.4,98.4V814.7c0,54.1,44.3,98.4,98.4,98.4h459.4c54.1,0,98.4-44.3,98.4-98.4V355.3C765.65,301.2,721.35,256.9,667.25,256.9ZM437.8,814c-126.89,0-229.75-102.86-229.75-229.75S310.91,354.5,437.8,354.5,667.55,457.36,667.55,584.25,564.69,814,437.8,814Z"/></svg>