<svg id="Nunchaku" xmlns="http://www.w3.org/2000/svg" viewBox="0 0 1024 1024"><defs><style>.cls-1{fill:#fff;}</style></defs><title>Nunchaku</title><path class="cls-1" d="M772.59,825.5c6.84-17.95,13.77-34.55,19.55-51.54,28.58-84.08,37.19-170.69,31.4-258.92-6.65-101.19-31.77-197.89-72-290.8-6-13.84-12.41-27.5-19-42l138.21-36.46c3.43,10.27,6.92,20.22,10.07,30.27C912.22,276,926.92,378,918.79,482.74c-7.35,94.63-32.61,183.75-83.57,264.65a439.88,439.88,0,0,1-59.67,75.29C774.85,823.39,774.12,824,772.59,825.5Z"/><path class="cls-1" d="M610.41,214.47l114-30.07c1.91,5.14,3.81,10,5.54,14.95,31.19,88.83,46.24,180,38.89,274.26-6.24,80-28,155.26-73.13,222.41-11.92,17.72-26.54,33.64-40,50.33-1.37,1.7-3.13,3.07-5.84,5.68.8-2.58,1-3.69,1.48-4.71,30.83-70.18,42.73-143.92,41.14-220.12-1.8-86.48-20.71-169.38-53.41-249.22-8.36-20.41-18.28-40.18-27.47-60.26C611.25,216.84,611,215.91,610.41,214.47Z"/><path class="cls-1" d="M864.68,136.29c-1.83.56-4.14,1.35-6.49,2Q573.51,213.09,288.83,287.89c-11.22,2.95-16.62-.16-19.52-11.18Q267,267.84,264.63,259c-3-11.7-.11-16.85,11.4-19.88q97.66-25.66,195.33-51.29,187-49.15,374-98.33c11.62-3.05,16.89-.05,19.88,11.39q2.71,10.36,5.4,20.73C872.27,127.69,870.13,132.36,864.68,136.29Z"/><path class="cls-1" d="M561.15,898.15c3.38,6,2.73,11.52-1.63,16q-8.3,8.58-16.9,16.86c-6.57,6.33-13.21,6.14-19.8-.47Q405.27,812.63,287.76,694.67,196.6,603.15,105.47,511.61c-7.78-7.81-7.81-13.67-.11-21.47q7.09-7.19,14.24-14.32c7.36-7.31,13.75-7.31,21.11.07Q316.81,652.58,492.87,829.3q32.41,32.52,64.77,65.09C559.07,895.83,560.41,897.36,561.15,898.15Z"/><path class="cls-1" d="M595.9,218.28c4.76,23.17,10.14,45.42,13.8,68,11.47,70.67,10.12,140.95-9.08,210.33-15.46,55.89-41.61,106-81.8,148.27-1.24,1.31-2.52,2.58-4.85,5,57-137.92,42-272.78-9.81-407.31Z"/><path class="cls-1" d="M246.41,289.9A18.38,18.38,0,1,1,253.57,265,18.43,18.43,0,0,1,246.41,289.9Z"/><path class="cls-1" d="M198.91,310.19a18.38,18.38,0,1,1,6.81-25A18.43,18.43,0,0,1,198.91,310.19Z"/><path class="cls-1" d="M129.08,329.09a18.38,18.38,0,1,1,24.93,7A18.43,18.43,0,0,1,129.08,329.09Z"/><path class="cls-1" d="M125.56,352.6a18.38,18.38,0,1,1-24.93-7A18.43,18.43,0,0,1,125.56,352.6Z"/><path class="cls-1" d="M98.75,426a18.38,18.38,0,1,1,6.5-25.05A18.44,18.44,0,0,1,98.75,426Z"/><path class="cls-1" d="M75,471.16a18.38,18.38,0,1,1,25.05,6.5A18.44,18.44,0,0,1,75,471.16Z"/></svg>