<svg id="Layer_1" data-name="Layer 1" xmlns="http://www.w3.org/2000/svg" viewBox="0 0 1024 1024"><defs><style>.cls-1,.cls-2,.cls-4{fill:none;stroke:#fff;stroke-miterlimit:10;}.cls-1{stroke-width:96px;}.cls-2{stroke-width:50px;}.cls-3{fill:#fff;}.cls-4{stroke-width:80px;}</style></defs><title>StabNotes</title><path class="cls-1" d="M279.1,157.5a98.71,98.71,0,0,1,83.3-46.1H821.8c54.1,0,98.4,44.3,98.4,98.4V669.2a98.46,98.46,0,0,1-43.4,81.5"/><path class="cls-1" d="M662.7,256.9H203.3c-54.1,0-98.4,44.3-98.4,98.4V814.7c0,54.1,44.3,98.4,98.4,98.4H662.7c54.1,0,98.4-44.3,98.4-98.4V355.3C761.1,301.2,716.8,256.9,662.7,256.9Z"/><path class="cls-2" d="M335.37,556.53S557.24,784.77,647.21,792C640,702,411.74,480.17,411.74,480.17"/><path class="cls-3" d="M437.19,391.07a180.49,180.49,0,0,1-2.77,20.3c-1.23,6.46-2.58,12.8-4.22,18.85a3.67,3.67,0,0,1-1.19,1.69c-.53.43-1.17.75-1.75,1.13a8.15,8.15,0,0,0-1.56,1.32l-1.44,1.44-5.77,5.77L407,453.12l-46.14,46.14L314.69,545.4l-23.07,23.07c-3.11.74-6.19,1.5-9.32,2.22s-6.3,1.39-9.56,2c-6.45,1.24-13.06,2.32-20.1,3,.65-7,1.74-13.64,3-20.1.58-3.27,1.31-6.38,2-9.56s1.48-6.21,2.22-9.32l23.07-23.07L329,467.44l46.14-46.14,11.53-11.53,5.77-5.77,1.44-1.44a8.15,8.15,0,0,0,1.32-1.56c.38-.58.7-1.22,1.13-1.75a3.67,3.67,0,0,1,1.69-1.19c6-1.64,12.39-3,18.85-4.22A180.5,180.5,0,0,1,437.19,391.07Z"/><line class="cls-4" x1="246.28" y1="391.07" x2="329.01" y2="473.8"/><path class="cls-3" d="M187.41,421.3a80,80,0,0,1-2-13.11,93.8,93.8,0,0,1-.19-11.33,85.07,85.07,0,0,1,1.06-10.07,71.38,71.38,0,0,1,2.08-9.06,66.4,66.4,0,0,1,6.75-15.52,62.34,62.34,0,0,1,9.77-12.51A63.26,63.26,0,0,1,217.47,340,66.92,66.92,0,0,1,233,333.26a72.68,72.68,0,0,1,9.06-2.08,86.11,86.11,0,0,1,10.06-1.07,94.11,94.11,0,0,1,11.3.17,80,80,0,0,1,13.07,1.93l3.18,3.18-2.55,3-2.6,3-5.21,5.92c-3.53,3.9-7.07,7.78-10.68,11.6s-7.25,7.6-10.87,11.4l-11,11.22-11.22,11.05c-3.8,3.62-7.54,7.31-11.4,10.87s-7.7,7.15-11.6,10.68l-5.93,5.21-3,2.6-3,2.54Z"/></svg>