<svg id="Layer_1" data-name="Layer 1" xmlns="http://www.w3.org/2000/svg" viewBox="0 0 1024 1024"><defs><style>.cls-1,.cls-2,.cls-3{fill:none;stroke-miterlimit:10;}.cls-1{stroke:#fff;stroke-width:96px;}.cls-2{stroke:#ec1c24;stroke-width:25px;}.cls-3{stroke:#3f48cc;stroke-width:30px;}</style></defs><title>TouchNotesColor</title><path class="cls-1" d="M279.1,157.5a98.71,98.71,0,0,1,83.3-46.1H821.8c54.1,0,98.4,44.3,98.4,98.4V669.2a98.46,98.46,0,0,1-43.4,81.5"/><path class="cls-1" d="M662.7,256.9H203.3c-54.1,0-98.4,44.3-98.4,98.4V814.7c0,54.1,44.3,98.4,98.4,98.4H662.7c54.1,0,98.4-44.3,98.4-98.4V355.3C761.1,301.2,716.8,256.9,662.7,256.9Z"/><path class="cls-2" d="M335,535.18a99,99,0,1,1,140,0"/><path class="cls-2" d="M303.18,567a144,144,0,1,1,203.65,0"/><path class="cls-2" d="M366.82,503.36a54,54,0,1,1,76.37,0"/><path class="cls-3" d="M432,594s0-27,27-27,27,27,27,27v81"/><path class="cls-3" d="M486,612s0-18,27-18,27,18,27,18v72"/><path class="cls-3" d="M540,639s0-18,27-18,27,18,27,18V747c0,27-63,108-63,108H414s-63-81-81-108-45-99-18-108,63,63,63,63V504s0-27,27-27,27,27,27,27V657"/></svg>